<?xml version="1.0" encoding="utf-8"?>
<!-- Generator: Adobe Illustrator 16.0.4, SVG Export Plug-In . SVG Version: 6.00 Build 0)  -->
<!DOCTYPE svg PUBLIC "-//W3C//DTD SVG 1.1//EN" "http://www.w3.org/Graphics/SVG/1.1/DTD/svg11.dtd">
<svg version="1.1" id="Layer_1" xmlns="http://www.w3.org/2000/svg" xmlns:xlink="http://www.w3.org/1999/xlink" x="0px" y="0px"
	 width="202px" height="66px" viewBox="0 0 202 66" enable-background="new 0 0 202 66" xml:space="preserve">
<g>
	<g id="XMLID_54_">
		<g id="XMLID_55_">
			<g>
				<path fill="#8FB165" d="M60.044,29.282c2.052,1.945,3.342,4.706,3.342,7.779c0,5.061-3.514,9.283-8.242,10.434
					c-4.33-0.526-8.735-0.924-13.206-1.15c-1.934-0.161-3.954-0.269-6.017-0.333l-0.989-13.861l14.27-16.526l-14.56,12.593
					l-1.3-17.912L31.516,35.46l-16.365-8.671l16.128,11.83l-0.537,7.339c-2.848,0.032-5.641,0.161-8.306,0.387
					c-4.48,0.227-8.886,0.624-13.216,1.15C4.513,46.345,1,42.122,1,37.062c0-3.073,1.29-5.834,3.342-7.779
					c-0.816-1.73-1.311-3.653-1.311-5.695c0-6.576,4.825-12.034,11.111-13.044c0.161-0.161,0.322-0.333,0.505-0.494
					c2.536-5.405,9.434-9.284,17.547-9.284c8.102,0,15,3.879,17.546,9.284c0.172,0.161,0.333,0.333,0.495,0.494
					c6.296,1.01,11.121,6.469,11.121,13.044C61.355,25.629,60.872,27.552,60.044,29.282z"/>
				<path fill="#8FB165" d="M35.921,46.012l1.407,19.224h-7.962l1.375-19.277c0.483-0.011,0.967-0.032,1.451-0.032
					C33.46,45.926,34.696,45.958,35.921,46.012z"/>
			</g>
			<g>
			</g>
		</g>
	</g>
	<g>
		<path fill="#818181" d="M82.517,25.9c-0.071,0.114-0.146,0.195-0.227,0.242c-0.077,0.046-0.179,0.068-0.3,0.068
			c-0.131,0-0.267-0.035-0.414-0.106c-0.146-0.071-0.316-0.153-0.512-0.241c-0.193-0.091-0.413-0.17-0.659-0.243
			c-0.247-0.072-0.539-0.107-0.877-0.107c-0.522,0-0.934,0.111-1.234,0.334c-0.302,0.222-0.453,0.512-0.453,0.87
			c0,0.235,0.078,0.435,0.233,0.597c0.153,0.161,0.356,0.302,0.61,0.424c0.256,0.121,0.544,0.23,0.866,0.327
			c0.321,0.097,0.651,0.204,0.989,0.317c0.336,0.115,0.665,0.245,0.988,0.393c0.321,0.146,0.61,0.333,0.864,0.558
			c0.254,0.227,0.458,0.498,0.613,0.812c0.153,0.314,0.23,0.694,0.23,1.14c0,0.528-0.097,1.018-0.291,1.467
			c-0.193,0.447-0.477,0.833-0.849,1.158c-0.373,0.327-0.833,0.581-1.381,0.764s-1.177,0.275-1.885,0.275
			c-0.38,0-0.751-0.036-1.112-0.104c-0.362-0.069-0.709-0.163-1.042-0.285c-0.334-0.121-0.643-0.264-0.924-0.43
			c-0.283-0.164-0.533-0.342-0.747-0.538l0.612-1.009c0.078-0.122,0.173-0.214,0.279-0.279c0.107-0.064,0.243-0.097,0.407-0.097
			c0.166,0,0.321,0.047,0.468,0.141c0.147,0.093,0.317,0.193,0.51,0.301c0.193,0.106,0.423,0.207,0.683,0.3
			c0.263,0.095,0.594,0.141,0.995,0.141c0.314,0,0.585-0.038,0.812-0.113c0.225-0.075,0.412-0.175,0.559-0.296
			c0.146-0.122,0.254-0.263,0.321-0.424c0.069-0.162,0.103-0.327,0.103-0.5c0-0.258-0.078-0.47-0.231-0.634
			c-0.154-0.165-0.358-0.308-0.612-0.43s-0.544-0.231-0.871-0.328c-0.325-0.096-0.659-0.203-0.999-0.316
			c-0.34-0.115-0.673-0.25-0.999-0.402c-0.325-0.156-0.617-0.352-0.87-0.586c-0.254-0.237-0.458-0.527-0.613-0.871
			c-0.153-0.344-0.231-0.76-0.231-1.246c0-0.452,0.091-0.882,0.27-1.289c0.18-0.409,0.442-0.766,0.791-1.07
			c0.346-0.304,0.78-0.548,1.299-0.73c0.521-0.183,1.121-0.272,1.801-0.272c0.76,0,1.45,0.124,2.073,0.375
			c0.623,0.25,1.142,0.58,1.558,0.989L82.517,25.9z"/>
		<path fill="#818181" d="M89.662,20.539c0,0.229-0.048,0.442-0.14,0.645c-0.093,0.199-0.217,0.375-0.372,0.526
			c-0.153,0.149-0.333,0.271-0.541,0.358c-0.208,0.091-0.431,0.135-0.668,0.135c-0.229,0-0.444-0.044-0.648-0.135
			c-0.205-0.088-0.382-0.209-0.532-0.358c-0.149-0.151-0.271-0.327-0.359-0.526c-0.09-0.202-0.134-0.416-0.134-0.645
			c0-0.237,0.044-0.46,0.134-0.668c0.088-0.207,0.21-0.386,0.359-0.537c0.15-0.148,0.327-0.271,0.532-0.358
			c0.204-0.091,0.42-0.135,0.648-0.135c0.237,0,0.46,0.044,0.668,0.135c0.208,0.088,0.388,0.21,0.541,0.358
			c0.155,0.151,0.279,0.33,0.372,0.537C89.614,20.079,89.662,20.302,89.662,20.539z M89.264,23.752v11.023h-2.652V23.752H89.264z"/>
		<path fill="#818181" d="M96.162,18.808v15.968H93.51V18.808H96.162z"/>
		<path fill="#818181" d="M105.757,34.775h-2.407l-4.384-11.023h2.203c0.193,0,0.357,0.046,0.489,0.139
			c0.133,0.092,0.225,0.212,0.275,0.354l2.125,5.889c0.122,0.345,0.226,0.681,0.307,1.01c0.082,0.329,0.156,0.659,0.221,0.988
			c0.065-0.329,0.139-0.659,0.221-0.988c0.081-0.329,0.188-0.665,0.316-1.01l2.183-5.889c0.048-0.143,0.139-0.263,0.269-0.354
			c0.128-0.093,0.281-0.139,0.462-0.139h2.095L105.757,34.775z"/>
		<path fill="#818181" d="M116.974,23.58c0.697,0,1.335,0.111,1.919,0.331c0.585,0.223,1.087,0.548,1.511,0.974
			c0.422,0.427,0.752,0.949,0.988,1.568c0.235,0.619,0.354,1.328,0.354,2.121c0,0.202-0.01,0.368-0.027,0.5
			c-0.019,0.134-0.05,0.237-0.096,0.312c-0.047,0.075-0.109,0.128-0.189,0.162c-0.077,0.031-0.178,0.048-0.3,0.048h-6.812
			c0.078,1.131,0.382,1.962,0.913,2.493c0.531,0.529,1.232,0.796,2.107,0.796c0.428,0,0.8-0.051,1.109-0.151
			c0.313-0.101,0.586-0.212,0.819-0.334c0.23-0.122,0.437-0.232,0.61-0.334c0.176-0.099,0.347-0.148,0.512-0.148
			c0.107,0,0.199,0.021,0.279,0.062c0.078,0.044,0.147,0.105,0.204,0.183l0.773,0.968c-0.293,0.344-0.623,0.634-0.987,0.864
			c-0.366,0.233-0.748,0.42-1.146,0.561c-0.396,0.139-0.802,0.237-1.213,0.294c-0.413,0.059-0.812,0.086-1.198,0.086
			c-0.767,0-1.479-0.126-2.139-0.38s-1.232-0.632-1.719-1.129s-0.871-1.114-1.149-1.849c-0.279-0.732-0.421-1.585-0.421-2.553
			c0-0.751,0.122-1.458,0.366-2.121c0.243-0.661,0.594-1.238,1.049-1.729c0.453-0.491,1.01-0.879,1.664-1.167
			C115.413,23.723,116.151,23.58,116.974,23.58z M117.028,25.481c-0.773,0-1.378,0.218-1.814,0.654s-0.718,1.058-0.84,1.859h4.986
			c0-0.344-0.046-0.667-0.139-0.972c-0.095-0.304-0.237-0.573-0.43-0.802c-0.193-0.229-0.438-0.409-0.73-0.541
			C117.768,25.546,117.424,25.481,117.028,25.481z"/>
		<path fill="#818181" d="M124.98,34.775V23.752h1.558c0.272,0,0.462,0.049,0.568,0.148c0.109,0.102,0.181,0.273,0.217,0.517
			l0.161,1.333c0.393-0.681,0.854-1.218,1.385-1.611c0.531-0.396,1.125-0.593,1.784-0.593c0.544,0,0.995,0.126,1.354,0.376
			l-0.344,1.989c-0.021,0.128-0.067,0.221-0.139,0.273c-0.071,0.054-0.17,0.081-0.292,0.081c-0.107,0-0.254-0.024-0.438-0.075
			c-0.187-0.05-0.435-0.075-0.743-0.075c-0.552,0-1.024,0.15-1.419,0.457c-0.393,0.305-0.726,0.749-0.999,1.337v6.866H124.98z"/>
		<path fill="#818181" d="M140.055,34.775V23.752h1.623c0.344,0,0.568,0.159,0.676,0.482l0.172,0.816
			c0.193-0.214,0.396-0.411,0.606-0.592c0.212-0.178,0.438-0.331,0.678-0.462c0.239-0.128,0.497-0.23,0.774-0.306
			c0.275-0.074,0.577-0.111,0.906-0.111c0.695,0,1.269,0.187,1.715,0.562c0.447,0.377,0.783,0.877,1.005,1.5
			c0.173-0.365,0.387-0.68,0.645-0.939c0.258-0.263,0.542-0.475,0.849-0.641c0.309-0.164,0.636-0.285,0.984-0.365
			c0.346-0.08,0.696-0.117,1.047-0.117c0.608,0,1.15,0.092,1.622,0.279c0.473,0.187,0.871,0.457,1.191,0.816
			c0.324,0.358,0.569,0.795,0.737,1.31c0.168,0.516,0.254,1.107,0.254,1.773v7.017h-2.654v-7.017c0-0.701-0.156-1.23-0.462-1.585
			c-0.309-0.354-0.76-0.531-1.354-0.531c-0.272,0-0.523,0.046-0.757,0.139c-0.233,0.095-0.438,0.229-0.613,0.403
			c-0.176,0.176-0.314,0.396-0.413,0.661c-0.101,0.264-0.151,0.568-0.151,0.913v7.017h-2.665v-7.017
			c0-0.737-0.148-1.274-0.445-1.612c-0.298-0.336-0.736-0.504-1.315-0.504c-0.38,0-0.737,0.095-1.07,0.284
			c-0.334,0.19-0.643,0.451-0.93,0.78v8.068H140.055z"/>
		<path fill="#818181" d="M167.864,34.775h-1.194c-0.249,0-0.446-0.037-0.59-0.112c-0.145-0.076-0.252-0.227-0.322-0.458
			l-0.237-0.783c-0.279,0.25-0.552,0.471-0.821,0.66c-0.268,0.19-0.547,0.35-0.833,0.478c-0.287,0.131-0.591,0.228-0.912,0.29
			c-0.323,0.064-0.683,0.099-1.075,0.099c-0.466,0-0.896-0.063-1.29-0.188c-0.393-0.127-0.732-0.313-1.017-0.565
			c-0.281-0.249-0.501-0.562-0.658-0.934c-0.16-0.373-0.237-0.806-0.237-1.301c0-0.416,0.108-0.825,0.327-1.23
			c0.219-0.404,0.581-0.77,1.092-1.095c0.508-0.328,1.186-0.597,2.029-0.812c0.845-0.214,1.895-0.336,3.149-0.365v-0.645
			c0-0.738-0.157-1.284-0.468-1.639c-0.312-0.354-0.764-0.531-1.359-0.531c-0.431,0-0.787,0.051-1.075,0.149
			c-0.285,0.101-0.535,0.214-0.747,0.34c-0.21,0.124-0.405,0.237-0.585,0.338c-0.179,0.101-0.376,0.151-0.59,0.151
			c-0.181,0-0.334-0.049-0.462-0.141c-0.13-0.093-0.233-0.208-0.313-0.345l-0.481-0.848c1.267-1.16,2.797-1.742,4.587-1.742
			c0.645,0,1.22,0.107,1.726,0.317c0.504,0.212,0.932,0.506,1.284,0.881c0.351,0.376,0.617,0.827,0.8,1.35
			c0.183,0.523,0.274,1.096,0.274,1.719V34.775z M162.706,33.12c0.272,0,0.522-0.025,0.751-0.075
			c0.23-0.051,0.447-0.124,0.651-0.225c0.203-0.101,0.4-0.225,0.591-0.371c0.189-0.147,0.381-0.321,0.575-0.521v-1.859
			c-0.774,0.035-1.421,0.103-1.941,0.199c-0.518,0.096-0.936,0.22-1.251,0.369c-0.314,0.151-0.539,0.327-0.671,0.526
			c-0.132,0.202-0.199,0.42-0.199,0.657c0,0.466,0.138,0.798,0.413,0.999C161.902,33.02,162.261,33.12,162.706,33.12z"/>
		<path fill="#818181" d="M171.55,38.375V23.752h1.622c0.172,0,0.319,0.038,0.44,0.117c0.122,0.078,0.199,0.199,0.235,0.365
			l0.216,1.021c0.443-0.508,0.953-0.92,1.53-1.234c0.577-0.316,1.253-0.475,2.025-0.475c0.603,0,1.152,0.126,1.649,0.376
			c0.499,0.252,0.928,0.615,1.291,1.092c0.36,0.476,0.64,1.063,0.837,1.763c0.197,0.698,0.296,1.498,0.296,2.4
			c0,0.825-0.111,1.587-0.334,2.29c-0.222,0.701-0.539,1.31-0.95,1.825c-0.411,0.517-0.909,0.92-1.494,1.209
			c-0.584,0.29-1.236,0.435-1.96,0.435c-0.624,0-1.152-0.094-1.585-0.283c-0.435-0.191-0.822-0.453-1.167-0.791v4.514H171.55z
			 M176.706,25.643c-0.552,0-1.021,0.116-1.412,0.349c-0.391,0.233-0.754,0.561-1.092,0.984v4.942
			c0.303,0.371,0.63,0.632,0.984,0.778s0.734,0.221,1.144,0.221c0.401,0,0.764-0.076,1.092-0.227
			c0.325-0.149,0.601-0.38,0.827-0.687c0.225-0.309,0.398-0.696,0.52-1.167c0.122-0.468,0.184-1.022,0.184-1.66
			c0-0.645-0.053-1.189-0.156-1.639c-0.103-0.447-0.252-0.811-0.444-1.089c-0.195-0.279-0.429-0.485-0.705-0.613
			C177.371,25.706,177.057,25.643,176.706,25.643z"/>
		<path fill="#818181" d="M187.602,18.808v15.968h-2.654V18.808H187.602z"/>
		<path fill="#818181" d="M196.229,23.58c0.695,0,1.335,0.111,1.919,0.331c0.583,0.223,1.087,0.548,1.509,0.974
			c0.424,0.427,0.753,0.949,0.988,1.568c0.237,0.619,0.354,1.328,0.354,2.121c0,0.202-0.008,0.368-0.027,0.5
			c-0.017,0.134-0.048,0.237-0.097,0.312c-0.046,0.075-0.108,0.128-0.187,0.162c-0.08,0.031-0.181,0.048-0.303,0.048h-6.812
			c0.08,1.131,0.384,1.962,0.915,2.493c0.528,0.529,1.231,0.796,2.104,0.796c0.431,0,0.8-0.051,1.112-0.151
			c0.312-0.101,0.584-0.212,0.816-0.334c0.233-0.122,0.437-0.232,0.613-0.334c0.176-0.099,0.346-0.148,0.51-0.148
			c0.107,0,0.201,0.021,0.279,0.062c0.079,0.044,0.146,0.105,0.205,0.183l0.772,0.968c-0.294,0.344-0.623,0.634-0.988,0.864
			c-0.365,0.233-0.747,0.42-1.144,0.561c-0.398,0.139-0.802,0.237-1.216,0.294c-0.411,0.059-0.81,0.086-1.198,0.086
			c-0.766,0-1.477-0.126-2.136-0.38c-0.661-0.254-1.234-0.632-1.721-1.129c-0.487-0.497-0.869-1.114-1.15-1.849
			c-0.279-0.732-0.418-1.585-0.418-2.553c0-0.751,0.122-1.458,0.365-2.121c0.243-0.661,0.592-1.238,1.047-1.729
			c0.456-0.491,1.01-0.879,1.667-1.167C194.666,23.723,195.405,23.58,196.229,23.58z M196.284,25.481
			c-0.774,0-1.381,0.218-1.817,0.654s-0.715,1.058-0.837,1.859h4.986c0-0.344-0.049-0.667-0.141-0.972
			c-0.093-0.304-0.237-0.573-0.431-0.802s-0.437-0.409-0.73-0.541C197.021,25.546,196.677,25.481,196.284,25.481z"/>
		<path fill="#818181" d="M76.12,59.67V46.644h0.504c0.084,0,0.15,0.018,0.203,0.053c0.051,0.036,0.08,0.099,0.086,0.188
			l0.088,1.488c0.425-0.579,0.924-1.041,1.495-1.381c0.568-0.342,1.209-0.514,1.918-0.514c1.186,0,2.108,0.409,2.766,1.229
			c0.657,0.818,0.986,2.046,0.986,3.684c0,0.702-0.092,1.359-0.274,1.968c-0.185,0.609-0.453,1.138-0.809,1.587
			c-0.354,0.447-0.791,0.8-1.31,1.058c-0.521,0.258-1.118,0.388-1.794,0.388c-0.659,0-1.226-0.119-1.702-0.358
			c-0.479-0.239-0.89-0.594-1.238-1.063v4.7H76.12z M80.153,47.224c-0.638,0-1.217,0.165-1.735,0.497
			c-0.521,0.333-0.979,0.795-1.379,1.39v5.047c0.367,0.554,0.774,0.944,1.224,1.171c0.447,0.225,0.959,0.338,1.532,0.338
			c0.568,0,1.063-0.103,1.49-0.311c0.426-0.206,0.78-0.497,1.068-0.875c0.287-0.376,0.503-0.827,0.647-1.354
			c0.146-0.524,0.219-1.104,0.219-1.735c0-1.432-0.265-2.483-0.789-3.157S81.146,47.224,80.153,47.224z"/>
		<path fill="#818181" d="M87.436,56.267V42.194h0.92v6.093c0.442-0.548,0.95-0.984,1.521-1.31c0.57-0.325,1.211-0.489,1.92-0.489
			c0.529,0,0.995,0.085,1.397,0.252c0.403,0.168,0.737,0.409,1.001,0.724c0.265,0.317,0.464,0.697,0.599,1.142
			c0.137,0.445,0.203,0.949,0.203,1.51v6.151h-0.919v-6.151c0-0.902-0.205-1.609-0.617-2.124c-0.413-0.513-1.045-0.768-1.897-0.768
			c-0.631,0-1.217,0.163-1.758,0.488c-0.542,0.325-1.026,0.772-1.45,1.339v7.216H87.436z"/>
		<path fill="#818181" d="M102.531,46.488c0.688,0,1.306,0.118,1.851,0.353c0.546,0.235,1.006,0.568,1.379,1.001
			c0.374,0.433,0.659,0.953,0.856,1.562c0.195,0.61,0.294,1.291,0.294,2.046c0,0.754-0.099,1.435-0.294,2.041
			c-0.197,0.605-0.482,1.124-0.856,1.557c-0.373,0.433-0.833,0.764-1.379,0.997c-0.545,0.23-1.162,0.348-1.851,0.348
			c-0.69,0-1.308-0.117-1.853-0.348c-0.544-0.233-1.006-0.564-1.384-0.997c-0.375-0.433-0.663-0.951-0.86-1.557
			c-0.196-0.606-0.294-1.287-0.294-2.041c0-0.755,0.098-1.436,0.294-2.046c0.197-0.608,0.485-1.129,0.86-1.562
			c0.378-0.433,0.84-0.766,1.384-1.001C101.224,46.606,101.841,46.488,102.531,46.488z M102.531,55.666
			c0.573,0,1.075-0.099,1.503-0.296c0.428-0.195,0.787-0.479,1.074-0.846c0.285-0.367,0.502-0.811,0.643-1.328
			c0.143-0.521,0.214-1.103,0.214-1.747c0-0.638-0.071-1.219-0.214-1.741c-0.141-0.521-0.357-0.968-0.643-1.339
			c-0.287-0.369-0.646-0.654-1.074-0.856c-0.428-0.199-0.93-0.298-1.503-0.298c-0.574,0-1.076,0.099-1.504,0.298
			c-0.429,0.202-0.788,0.487-1.073,0.856c-0.287,0.371-0.503,0.818-0.648,1.339c-0.145,0.522-0.218,1.104-0.218,1.741
			c0,0.645,0.073,1.227,0.218,1.747c0.146,0.518,0.361,0.961,0.648,1.328c0.285,0.367,0.645,0.65,1.073,0.846
			C101.455,55.567,101.957,55.666,102.531,55.666z"/>
		<path fill="#818181" d="M112.918,56.419c-0.653,0-1.159-0.18-1.52-0.541c-0.361-0.361-0.542-0.917-0.542-1.673V47.63h-1.383
			c-0.071,0-0.128-0.021-0.174-0.059c-0.045-0.038-0.067-0.093-0.067-0.163v-0.359l1.643-0.115l0.231-3.443
			c0.007-0.058,0.029-0.109,0.071-0.154c0.042-0.046,0.097-0.069,0.168-0.069h0.431v3.678h3.025v0.686h-3.025v6.527
			c0,0.265,0.033,0.491,0.101,0.682c0.066,0.191,0.161,0.347,0.281,0.468c0.119,0.124,0.258,0.215,0.419,0.271
			c0.162,0.059,0.336,0.088,0.523,0.088c0.232,0,0.432-0.033,0.6-0.101c0.168-0.069,0.312-0.144,0.435-0.223
			c0.122-0.082,0.223-0.155,0.301-0.223c0.077-0.069,0.138-0.103,0.185-0.103c0.05,0,0.103,0.033,0.152,0.097l0.252,0.407
			c-0.245,0.271-0.556,0.488-0.934,0.652C113.715,56.338,113.322,56.419,112.918,56.419z"/>
		<path fill="#818181" d="M121.822,46.488c0.69,0,1.308,0.118,1.853,0.353c0.544,0.235,1.004,0.568,1.377,1.001
			c0.374,0.433,0.659,0.953,0.856,1.562c0.197,0.61,0.296,1.291,0.296,2.046c0,0.754-0.099,1.435-0.296,2.041
			c-0.197,0.605-0.482,1.124-0.856,1.557c-0.373,0.433-0.833,0.764-1.377,0.997c-0.545,0.23-1.162,0.348-1.853,0.348
			s-1.308-0.117-1.851-0.348c-0.546-0.233-1.006-0.564-1.384-0.997s-0.665-0.951-0.86-1.557c-0.197-0.606-0.296-1.287-0.296-2.041
			c0-0.755,0.099-1.436,0.296-2.046c0.195-0.608,0.482-1.129,0.86-1.562s0.838-0.766,1.384-1.001
			C120.515,46.606,121.132,46.488,121.822,46.488z M121.822,55.666c0.575,0,1.074-0.099,1.505-0.296
			c0.428-0.195,0.784-0.479,1.072-0.846c0.287-0.367,0.502-0.811,0.645-1.328c0.14-0.521,0.212-1.103,0.212-1.747
			c0-0.638-0.072-1.219-0.212-1.741c-0.143-0.521-0.357-0.968-0.645-1.339c-0.288-0.369-0.645-0.654-1.072-0.856
			c-0.431-0.199-0.93-0.298-1.505-0.298c-0.573,0-1.075,0.099-1.503,0.298c-0.43,0.202-0.787,0.487-1.074,0.856
			c-0.288,0.371-0.502,0.818-0.648,1.339c-0.146,0.522-0.216,1.104-0.216,1.741c0,0.645,0.07,1.227,0.216,1.747
			c0.146,0.518,0.36,0.961,0.648,1.328c0.287,0.367,0.645,0.65,1.074,0.846C120.747,55.567,121.249,55.666,121.822,55.666z"/>
		<path fill="#818181" d="M132.76,46.479c0.418,0,0.807,0.052,1.166,0.155c0.356,0.103,0.678,0.247,0.96,0.434h2.467v0.319
			c0,0.162-0.091,0.25-0.271,0.262l-1.458,0.107c0.181,0.244,0.319,0.521,0.416,0.827c0.096,0.307,0.145,0.632,0.145,0.979
			c0,0.465-0.084,0.887-0.252,1.264c-0.168,0.376-0.401,0.699-0.701,0.966c-0.3,0.269-0.659,0.477-1.078,0.626
			c-0.42,0.146-0.884,0.222-1.393,0.222c-0.556,0-1.057-0.084-1.508-0.252c-0.271,0.155-0.485,0.338-0.639,0.55
			c-0.155,0.214-0.233,0.42-0.233,0.619c0,0.279,0.097,0.491,0.29,0.641c0.195,0.146,0.451,0.256,0.771,0.322
			c0.319,0.067,0.682,0.112,1.091,0.131c0.41,0.019,0.827,0.04,1.249,0.062c0.422,0.023,0.837,0.063,1.247,0.122
			c0.409,0.057,0.773,0.159,1.093,0.305c0.319,0.145,0.575,0.349,0.769,0.608c0.192,0.262,0.292,0.608,0.292,1.039
			c0,0.4-0.102,0.784-0.301,1.151c-0.201,0.367-0.489,0.693-0.867,0.977c-0.375,0.283-0.833,0.512-1.368,0.682
			c-0.534,0.17-1.133,0.256-1.798,0.256c-0.676,0-1.271-0.069-1.78-0.207c-0.508-0.139-0.936-0.326-1.28-0.561
			c-0.346-0.235-0.604-0.508-0.778-0.819c-0.174-0.308-0.263-0.638-0.263-0.985c0-0.508,0.169-0.947,0.505-1.313
			c0.335-0.368,0.795-0.651,1.382-0.853c-0.322-0.109-0.579-0.267-0.768-0.475c-0.19-0.205-0.285-0.493-0.285-0.86
			c0-0.135,0.025-0.277,0.077-0.424c0.051-0.149,0.128-0.296,0.23-0.44c0.104-0.146,0.227-0.282,0.374-0.412
			c0.145-0.128,0.312-0.245,0.506-0.349c-0.457-0.264-0.812-0.614-1.068-1.053c-0.254-0.438-0.382-0.951-0.382-1.539
			c0-0.463,0.082-0.883,0.248-1.261c0.163-0.378,0.396-0.701,0.696-0.972c0.298-0.271,0.661-0.48,1.088-0.63
			C131.773,46.554,132.244,46.479,132.76,46.479z M136.328,56.912c0-0.302-0.08-0.545-0.237-0.73
			c-0.157-0.182-0.369-0.324-0.634-0.43c-0.265-0.103-0.568-0.174-0.913-0.216c-0.346-0.042-0.707-0.074-1.083-0.093
			c-0.377-0.019-0.756-0.037-1.137-0.059c-0.38-0.019-0.735-0.057-1.064-0.115c-0.243,0.097-0.472,0.207-0.68,0.334
			c-0.21,0.125-0.391,0.267-0.537,0.426c-0.149,0.157-0.265,0.331-0.349,0.522c-0.084,0.188-0.126,0.396-0.126,0.623
			c0,0.283,0.073,0.546,0.218,0.787c0.146,0.243,0.357,0.451,0.639,0.63c0.278,0.176,0.623,0.316,1.03,0.419
			c0.405,0.104,0.873,0.156,1.401,0.156c0.489,0,0.947-0.055,1.369-0.164c0.421-0.111,0.789-0.265,1.102-0.464
			c0.312-0.201,0.558-0.438,0.734-0.716C136.239,57.545,136.328,57.242,136.328,56.912z M132.76,52.01
			c0.412,0,0.779-0.059,1.103-0.178c0.323-0.12,0.594-0.286,0.812-0.498c0.219-0.214,0.387-0.468,0.498-0.764
			c0.113-0.298,0.17-0.625,0.17-0.988c0-0.361-0.06-0.69-0.175-0.99c-0.115-0.301-0.285-0.557-0.508-0.769
			c-0.222-0.214-0.493-0.378-0.812-0.493c-0.319-0.115-0.683-0.174-1.088-0.174c-0.406,0-0.77,0.059-1.093,0.174
			s-0.594,0.279-0.816,0.493c-0.223,0.212-0.393,0.468-0.508,0.769c-0.117,0.3-0.175,0.629-0.175,0.99
			c0,0.363,0.058,0.69,0.175,0.988c0.115,0.296,0.285,0.55,0.508,0.764c0.223,0.212,0.493,0.378,0.816,0.498
			C131.99,51.951,132.354,52.01,132.76,52.01z"/>
		<path fill="#818181" d="M140.312,56.267v-9.623h0.484c0.109,0,0.188,0.021,0.237,0.067c0.048,0.044,0.075,0.122,0.082,0.233
			l0.078,2.029c0.308-0.779,0.721-1.392,1.235-1.832c0.517-0.441,1.152-0.663,1.905-0.663c0.29,0,0.559,0.031,0.805,0.092
			c0.243,0.061,0.476,0.151,0.694,0.267l-0.124,0.639c-0.021,0.103-0.084,0.154-0.195,0.154c-0.038,0-0.093-0.012-0.163-0.039
			c-0.072-0.025-0.16-0.055-0.267-0.087c-0.105-0.033-0.237-0.061-0.391-0.088c-0.155-0.025-0.334-0.037-0.533-0.037
			c-0.729,0-1.326,0.224-1.795,0.675c-0.466,0.452-0.845,1.104-1.135,1.954v6.259H140.312z"/>
		<path fill="#818181" d="M154.615,56.267c-0.192,0-0.312-0.091-0.358-0.271l-0.135-1.229c-0.265,0.258-0.526,0.491-0.788,0.696
			c-0.261,0.208-0.533,0.381-0.817,0.523c-0.282,0.143-0.589,0.249-0.919,0.323c-0.329,0.075-0.69,0.11-1.083,0.11
			c-0.329,0-0.648-0.048-0.957-0.145c-0.311-0.096-0.583-0.243-0.822-0.444c-0.239-0.199-0.431-0.456-0.575-0.769
			s-0.218-0.688-0.218-1.127c0-0.405,0.117-0.783,0.348-1.131c0.233-0.349,0.596-0.65,1.089-0.909
			c0.494-0.258,1.128-0.464,1.904-0.619c0.778-0.155,1.71-0.245,2.799-0.271V50c0-0.89-0.19-1.576-0.574-2.058
			c-0.384-0.479-0.953-0.719-1.706-0.719c-0.464,0-0.858,0.064-1.187,0.192c-0.325,0.13-0.6,0.271-0.826,0.426
			c-0.226,0.155-0.41,0.297-0.55,0.427c-0.143,0.128-0.263,0.192-0.359,0.192c-0.128,0-0.225-0.059-0.289-0.174l-0.164-0.281
			c0.501-0.502,1.03-0.882,1.585-1.14c0.556-0.258,1.184-0.388,1.887-0.388c0.516,0,0.967,0.081,1.354,0.247
			c0.386,0.164,0.707,0.398,0.963,0.705c0.254,0.307,0.445,0.678,0.575,1.112c0.128,0.435,0.193,0.922,0.193,1.457v6.267H154.615z
			 M150.748,55.752c0.373,0,0.716-0.04,1.028-0.119c0.312-0.082,0.604-0.193,0.87-0.338c0.27-0.147,0.519-0.319,0.75-0.519
			c0.233-0.199,0.461-0.416,0.686-0.648v-2.504c-0.915,0.025-1.702,0.095-2.362,0.208c-0.661,0.113-1.207,0.267-1.635,0.459
			c-0.428,0.193-0.745,0.424-0.948,0.69c-0.202,0.27-0.305,0.573-0.305,0.915c0,0.321,0.054,0.601,0.159,0.835
			c0.107,0.236,0.248,0.431,0.422,0.582c0.175,0.151,0.376,0.263,0.608,0.334C150.255,55.719,150.496,55.752,150.748,55.752z"/>
		<path fill="#818181" d="M158.851,59.67V46.644h0.502c0.083,0,0.153,0.018,0.203,0.053c0.053,0.036,0.082,0.099,0.089,0.188
			l0.085,1.488c0.427-0.579,0.924-1.041,1.495-1.381c0.57-0.342,1.211-0.514,1.92-0.514c1.186,0,2.107,0.409,2.766,1.229
			c0.657,0.818,0.987,2.046,0.987,3.684c0,0.702-0.093,1.359-0.277,1.968c-0.183,0.609-0.453,1.138-0.807,1.587
			c-0.354,0.447-0.793,0.8-1.312,1.058c-0.518,0.258-1.116,0.388-1.794,0.388c-0.656,0-1.224-0.119-1.702-0.358
			c-0.477-0.239-0.89-0.594-1.236-1.063v4.7H158.851z M162.882,47.224c-0.638,0-1.217,0.165-1.735,0.497
			c-0.518,0.333-0.978,0.795-1.377,1.39v5.047c0.368,0.554,0.774,0.944,1.222,1.171c0.449,0.225,0.959,0.338,1.534,0.338
			c0.566,0,1.064-0.103,1.488-0.311c0.426-0.206,0.782-0.497,1.07-0.875c0.285-0.376,0.502-0.827,0.646-1.354
			c0.145-0.524,0.218-1.104,0.218-1.735c0-1.432-0.263-2.483-0.789-3.157C164.635,47.561,163.875,47.224,162.882,47.224z"/>
		<path fill="#818181" d="M170.165,56.267V42.194h0.919v6.093c0.444-0.548,0.952-0.984,1.523-1.31
			c0.57-0.325,1.209-0.489,1.918-0.489c0.529,0,0.995,0.085,1.398,0.252c0.402,0.168,0.736,0.409,1,0.724
			c0.265,0.317,0.464,0.697,0.601,1.142c0.135,0.445,0.204,0.949,0.204,1.51v6.151h-0.92v-6.151c0-0.902-0.205-1.609-0.619-2.124
			c-0.413-0.513-1.045-0.768-1.895-0.768c-0.632,0-1.22,0.163-1.761,0.488c-0.542,0.325-1.024,0.772-1.45,1.339v7.216H170.165z"/>
		<path fill="#818181" d="M183.451,59.359c-0.038,0.09-0.088,0.166-0.149,0.223c-0.061,0.059-0.15,0.088-0.267,0.088h-0.656
			l1.691-3.763l-4.071-9.264h0.764c0.097,0,0.172,0.023,0.227,0.072c0.057,0.048,0.097,0.103,0.122,0.159l3.24,7.485
			c0.037,0.097,0.071,0.195,0.101,0.294c0.029,0.102,0.057,0.201,0.082,0.307c0.033-0.105,0.066-0.205,0.103-0.307
			c0.036-0.099,0.071-0.197,0.111-0.294l3.2-7.485c0.032-0.071,0.078-0.126,0.135-0.168c0.059-0.042,0.124-0.063,0.195-0.063h0.705
			L183.451,59.359z"/>
	</g>
</g>
</svg>
